<?xml version="1.0" standalone="no"?>
<!DOCTYPE svg PUBLIC "-//W3C//DTD SVG 20010904//EN"
 "http://www.w3.org/TR/2001/REC-SVG-20010904/DTD/svg10.dtd">
<svg version="1.0" xmlns="http://www.w3.org/2000/svg"
 width="260.000000pt" height="260.000000pt" viewBox="0 0 260.000000 260.000000"
 preserveAspectRatio="xMidYMid meet">
<metadata>
Created by potrace 1.11, written by Peter Selinger 2001-2013
</metadata>
<g transform="translate(0.000000,260.000000) scale(0.100000,-0.100000)"
fill="#000000" stroke="none">
<path d="M1055 2550 c-326 -67 -608 -255 -788 -527 -90 -135 -146 -266 -189
-443 -18 -75 -18 -425 0 -500 43 -178 99 -308 190 -445 183 -276 478 -468 811
-530 109 -20 333 -20 442 0 333 62 628 254 811 530 73 110 111 189 151 310 48
149 52 181 52 385 0 204 -4 236 -52 385 -40 121 -78 200 -151 310 -183 276
-478 468 -811 530 -117 21 -349 19 -466 -5z m468 -66 c466 -89 841 -466 933
-940 23 -117 23 -311 0 -428 -93 -478 -464 -849 -942 -942 -117 -23 -311 -23
-428 0 -478 93 -849 464 -942 942 -23 117 -23 311 0 428 101 521 522 902 1061
960 65 7 233 -4 318 -20z"/>
<path d="M1235 1566 c-60 -22 -85 -57 -85 -116 0 -74 34 -108 142 -140 58 -18
84 -31 86 -43 6 -29 -18 -47 -58 -47 -30 0 -43 6 -59 26 -12 15 -21 33 -21 41
0 11 -10 13 -47 7 -27 -3 -52 -10 -56 -14 -15 -13 12 -85 41 -113 73 -70 247
-59 298 18 22 33 24 112 4 149 -17 33 -64 59 -144 80 -66 17 -81 28 -73 50 4
11 19 16 45 16 42 0 62 -14 62 -43 0 -16 7 -18 53 -15 48 3 52 5 55 30 4 38
-23 85 -60 104 -44 23 -134 28 -183 10z"/>
<path d="M347 1563 c-4 -3 -7 -102 -7 -220 l0 -213 55 0 55 0 0 85 c0 82 1 85
23 85 27 0 48 -21 106 -107 l42 -63 59 0 c43 0 60 4 60 13 0 7 -24 49 -52 93
l-53 80 38 35 c33 32 37 41 37 83 0 27 -7 60 -17 77 -29 49 -66 59 -210 59
-71 0 -133 -3 -136 -7z m247 -115 c18 -29 -13 -49 -83 -55 l-61 -6 0 42 0 42
66 -3 c50 -2 70 -7 78 -20z"/>
<path d="M752 1523 l3 -48 58 -3 57 -3 0 -169 0 -170 55 0 55 0 0 170 0 169
63 3 62 3 3 48 3 47 -181 0 -181 0 3 -47z"/>
<path d="M1560 1350 l0 -220 55 0 55 0 0 61 c0 46 5 68 21 90 11 16 23 29 27
29 4 0 30 -41 57 -90 l50 -90 68 0 c37 0 67 4 67 9 0 6 -36 65 -80 133 l-80
123 75 75 c41 42 75 81 75 88 0 8 -21 12 -66 12 l-67 0 -73 -77 -73 -78 -1 78
0 77 -55 0 -55 0 0 -220z"/>
<path d="M2000 1351 l0 -221 160 0 160 0 0 45 0 45 -105 0 -105 0 -2 173 -3
172 -52 3 -53 3 0 -220z"/>
</g>
</svg>
